<svg width="234" height="77" viewBox="0 0 234 77" fill="none" xmlns="http://www.w3.org/2000/svg">
<path d="M101.116 57.572H86.1383L82.594 62.5924H74.3621L90.0256 41.0323H93.5699C96.0471 41.0323 97.724 41.6483 98.6005 42.8803L112.835 62.5924H104.603L101.116 57.572ZM88.2535 53.9992H99.0007L93.6842 46.2376H93.6271L88.2535 53.9992ZM116.588 41.0323H123.62L136.711 53.8452L149.516 41.0323H156.548V62.5924H148.83V48.9479L140.427 57.1407C139.855 57.6951 139.264 58.0956 138.655 58.3419C138.083 58.5678 137.416 58.6807 136.654 58.6807H134.481L124.306 48.9479V62.5924H116.588V41.0323ZM169.195 62.5924C167.556 62.5924 166.222 62.3254 165.193 61.7916C164.164 61.2577 163.65 60.5596 163.65 59.6972V41.0323H194.177V44.7283H171.539V49.7179H192.462V53.4139H171.539V58.8964H194.177V62.5924H169.195ZM211.551 62.8387C207.359 62.8387 204.082 62.2125 201.719 60.9599C199.356 59.6869 198.174 57.921 198.174 55.6624H205.949C205.949 56.7301 206.444 57.572 207.435 58.188C208.464 58.7834 209.874 59.0812 211.666 59.0812H218.011C219.688 59.0812 221.041 58.8963 222.07 58.5267C223.137 58.1366 223.67 57.6233 223.67 56.9867V55.9396C223.67 54.9334 222.298 54.3071 219.555 54.0607L209.036 53.106C205.606 52.7979 202.995 52.2127 201.204 51.3503C199.451 50.4674 198.575 49.3484 198.575 47.9932V46.2683C198.575 45.1801 199.108 44.2253 200.175 43.4039C201.28 42.5621 202.824 41.9153 204.806 41.4636C206.826 41.0118 209.15 40.7859 211.78 40.7859H218.24C220.717 40.7859 222.908 41.0632 224.814 41.6176C226.719 42.172 228.187 42.9522 229.216 43.9583C230.283 44.9439 230.816 46.0938 230.816 47.4079H223.042C223.042 46.5455 222.603 45.8577 221.727 45.3443C220.85 44.8105 219.688 44.5436 218.24 44.5436H211.78C210.179 44.5436 208.883 44.7283 207.893 45.0979C206.94 45.4675 206.463 45.9603 206.463 46.5763V47.4079C206.463 48.4346 207.778 49.0712 210.408 49.3176L220.869 50.3032C224.337 50.6317 226.986 51.2169 228.815 52.0588C230.645 52.8801 231.559 53.9478 231.559 55.2619V57.2947C231.559 58.383 230.988 59.3481 229.844 60.19C228.739 61.0318 227.177 61.6889 225.157 62.1612C223.137 62.6129 220.793 62.8387 218.125 62.8387H211.551Z" fill="white"/>
<path d="M33.4994 62.0928C28.0876 62.0928 23.2857 61.4357 19.0935 60.1216C14.9775 58.8074 11.7762 56.9594 9.48958 54.5776C7.27916 52.1546 6.17395 49.3621 6.17395 46.2V33.88C6.17395 30.7179 7.31727 27.9459 9.60392 25.564C11.9668 23.141 15.2443 21.2725 19.4365 19.9584C23.6287 18.6442 28.4687 17.9872 33.9567 17.9872H46.3046C51.5639 17.9872 56.2134 18.5827 60.2531 19.7736C64.2928 20.9235 67.4179 22.5866 69.6283 24.7632C71.8388 26.8987 72.944 29.3627 72.944 32.1552H62.3111C62.3111 29.4859 60.8248 27.3299 57.8521 25.6872C54.9557 24.0445 51.1065 23.2232 46.3046 23.2232H33.9567C28.9261 23.2232 24.8482 24.2088 21.7231 26.18C18.5981 28.1512 17.0355 30.7589 17.0355 34.0032V46.0768C17.0355 49.321 18.5218 51.9288 21.4945 53.9C24.5433 55.8712 28.545 56.8568 33.4994 56.8568H46.3046C51.1827 56.8568 55.1463 55.9328 58.1951 54.0848C61.3202 52.2368 62.8827 49.8549 62.8827 46.9392V43.9824H40.7023V38.8696H73.5156V46.9392C73.5156 49.896 72.3723 52.5243 70.0857 54.824C67.799 57.1237 64.5977 58.9101 60.4818 60.1832C56.3658 61.4563 51.6401 62.0928 46.3046 62.0928H33.4994Z" fill="white"/>
<path d="M39.254 55.6453C40.973 55.6453 42.3664 54.8945 42.3664 53.9684C42.3664 53.0423 40.973 52.2915 39.254 52.2915C37.5351 52.2915 36.1417 53.0423 36.1417 53.9684C36.1417 54.8945 37.5351 55.6453 39.254 55.6453Z" fill="#FF0000"/>
<path d="M33.0293 52.2916C34.7483 52.2916 36.1417 51.5408 36.1417 50.6147C36.1417 49.6886 34.7483 48.9378 33.0293 48.9378C31.3104 48.9378 29.917 49.6886 29.917 50.6147C29.917 51.5408 31.3104 52.2916 33.0293 52.2916Z" fill="#00FE19"/>
<path d="M39.254 48.9378C40.973 48.9378 42.3664 48.1871 42.3664 47.2609C42.3664 46.3348 40.973 45.584 39.254 45.584C37.5351 45.584 36.1417 46.3348 36.1417 47.2609C36.1417 48.1871 37.5351 48.9378 39.254 48.9378Z" fill="#0500FF"/>
<path d="M48.5912 50.6146C48.5912 51.5407 47.1979 52.2916 45.4787 52.2916C43.7599 52.2916 42.3666 51.5407 42.3666 50.6146C42.3666 49.6886 43.7599 48.9377 45.4787 48.9377C47.1979 48.9377 48.5912 49.6886 48.5912 50.6146Z" fill="#FFF500"/>
<path d="M46.6856 30.3248H31.4194C30.367 30.3248 29.5139 30.7845 29.5139 31.3515V32.7243C29.5139 33.2913 30.367 33.751 31.4194 33.751H46.6856C47.738 33.751 48.5911 33.2913 48.5911 32.7243V31.3515C48.5911 30.7845 47.738 30.3248 46.6856 30.3248Z" fill="white"/>
<path d="M35.873 27.9252V36.1503C35.873 36.7173 36.7262 37.177 37.7786 37.177H40.3266C41.379 37.177 42.2321 36.7173 42.2321 36.1503V27.9252C42.2321 27.3582 41.379 26.8985 40.3266 26.8985H37.7786C36.7262 26.8985 35.873 27.3582 35.873 27.9252Z" fill="white"/>
<path d="M87.4653 38.5C85.7884 38.5 84.4355 38.2433 83.4065 37.73C82.4156 37.1961 81.9202 36.498 81.9202 35.6356V16.94H89.8091V34.804H111.532V38.5H87.4653ZM128.141 38.7464C125.13 38.7464 122.462 38.4076 120.137 37.73C117.851 37.0319 116.059 36.0668 114.764 34.8348C113.506 33.5823 112.877 32.1347 112.877 30.492V24.948C112.877 23.3053 113.506 21.868 114.764 20.636C116.059 19.3835 117.851 18.4184 120.137 17.7408C122.462 17.0427 125.13 16.6936 128.141 16.6936H134.2C137.211 16.6936 139.86 17.0427 142.146 17.7408C144.471 18.4184 146.262 19.3835 147.52 20.636C148.816 21.868 149.464 23.3053 149.464 24.948V30.492C149.464 32.1347 148.816 33.5823 147.52 34.8348C146.262 36.0668 144.471 37.0319 142.146 37.73C139.86 38.4076 137.211 38.7464 134.2 38.7464H128.141ZM134.2 34.9888C136.411 34.9888 138.183 34.5576 139.517 33.6952C140.889 32.8328 141.575 31.7035 141.575 30.3072V25.1328C141.575 23.7365 140.889 22.6072 139.517 21.7448C138.183 20.8824 136.411 20.4512 134.2 20.4512H128.141C125.93 20.4512 124.139 20.8824 122.767 21.7448C121.433 22.6072 120.766 23.7365 120.766 25.1328V30.3072C120.766 31.7035 121.433 32.8328 122.767 33.6952C124.139 34.5576 125.93 34.9888 128.141 34.9888H134.2ZM177.542 33.4796H162.564L159.02 38.5H150.788L166.452 16.94H169.996C172.473 16.94 174.15 17.556 175.027 18.788L189.261 38.5H181.029L177.542 33.4796ZM164.68 29.9068H175.427L170.11 22.1452H170.053L164.68 29.9068ZM198.225 38.5C196.586 38.5 195.252 38.2331 194.223 37.6992C193.194 37.1653 192.68 36.4672 192.68 35.6048V16.94H211.773C214.822 16.94 217.49 17.248 219.776 17.864C222.101 18.48 223.892 19.3527 225.15 20.482C226.446 21.6113 227.094 22.9152 227.094 24.3936V30.4304C227.094 33.0792 225.817 35.0915 223.263 36.4672C220.71 37.8224 216.956 38.5 212.002 38.5H198.225ZM211.773 34.7424C214.212 34.7424 216.061 34.3625 217.318 33.6028C218.576 32.8431 219.205 31.724 219.205 30.2456V24.5784C219.205 23.408 218.5 22.4737 217.09 21.7756C215.679 21.0569 213.831 20.6976 211.544 20.6976H200.569V34.7424H211.773Z" fill="#D01418"/>
<path d="M83.4065 37.73L82.3287 38.3107L82.3493 38.322L82.371 38.3326L83.4065 37.73ZM81.9202 16.94V16.1187H80.3958V16.94H81.9202ZM89.8091 16.94H91.3335V16.1187H89.8091V16.94ZM89.8091 34.804H88.2847V35.6253H89.8091V34.804ZM111.532 34.804H113.057V33.9827H111.532V34.804ZM111.532 38.5V39.3213H113.057V38.5H111.532ZM87.4653 37.6787C86.0929 37.6787 85.136 37.4735 84.4424 37.1273L82.371 38.3326C83.735 39.0131 85.4843 39.3213 87.4653 39.3213V37.6787ZM84.4847 37.1493C83.8208 36.7916 83.4446 36.3138 83.4446 35.6356H80.3958C80.3958 36.6822 81.0105 37.6006 82.3287 38.3107L84.4847 37.1493ZM83.4446 35.6356V16.94H80.3958V35.6356H83.4446ZM81.9202 17.7613H89.8091V16.1187H81.9202V17.7613ZM88.2847 16.94V34.804H91.3335V16.94H88.2847ZM89.8091 35.6253H111.532V33.9827H89.8091V35.6253ZM110.008 34.804V38.5H113.057V34.804H110.008ZM111.532 37.6787H87.4653V39.3213H111.532V37.6787ZM120.137 37.73L119.386 38.4445L119.399 38.4484L119.412 38.4524L120.137 37.73ZM114.764 34.8348L113.423 35.2255L113.43 35.2327L113.437 35.2397L114.764 34.8348ZM114.764 20.636L113.432 20.2361L113.43 20.2381L113.428 20.2402L114.764 20.636ZM120.137 17.7408L120.872 18.4605L120.875 18.4593L120.879 18.4582L120.137 17.7408ZM142.146 17.7408L141.395 18.4554L141.408 18.4593L141.421 18.4632L142.146 17.7408ZM147.52 20.636L146.179 21.0267L146.186 21.0339L146.194 21.0409L147.52 20.636ZM147.52 34.8348L146.188 34.435L146.186 34.4369L146.184 34.4389L147.52 34.8348ZM142.146 37.73L142.881 38.4497L142.884 38.4484L142.888 38.4474L142.146 37.73ZM139.517 33.6952L138.359 33.1607L138.352 33.165L138.345 33.1693L139.517 33.6952ZM139.517 21.7448L138.345 22.2706L138.352 22.275L138.359 22.2793L139.517 21.7448ZM122.767 21.7448L121.609 21.2103L121.603 21.2146L121.596 21.2189L122.767 21.7448ZM122.767 33.6952L121.596 34.221L121.603 34.2254L121.609 34.2297L122.767 33.6952ZM128.141 37.9251C125.347 37.9251 122.935 37.6117 120.863 37.0076L119.412 38.4524C121.989 39.2035 124.912 39.5677 128.141 39.5677V37.9251ZM120.889 37.0154C118.842 36.3906 117.25 35.5325 116.09 34.4299L113.437 35.2397C114.869 36.6011 116.859 37.6731 119.386 38.4445L120.889 37.0154ZM116.104 34.444C114.985 33.3287 114.402 32.0193 114.402 30.492H111.353C111.353 32.25 112.027 33.8358 113.423 35.2255L116.104 34.444ZM114.402 30.492V24.948H111.353V30.492H114.402ZM114.402 24.948C114.402 23.4203 114.985 22.1236 116.099 21.0319L113.428 20.2402C112.027 21.6123 111.353 23.1903 111.353 24.948H114.402ZM116.095 21.0358C117.255 19.9152 118.841 19.0622 120.872 18.4605L119.402 17.0211C116.86 17.7746 114.864 18.8517 113.432 20.2361L116.095 21.0358ZM120.879 18.4582C122.949 17.8368 125.355 17.5149 128.141 17.5149V15.8723C124.905 15.8723 121.975 16.2485 119.395 17.0234L120.879 18.4582ZM128.141 17.5149H134.2V15.8723H128.141V17.5149ZM134.2 17.5149C136.986 17.5149 139.369 17.8368 141.395 18.4554L142.898 17.0262C140.35 16.2485 137.435 15.8723 134.2 15.8723V17.5149ZM141.421 18.4632C143.485 19.0648 145.062 19.9147 146.179 21.0267L148.861 20.2452C147.462 18.8522 145.457 17.7719 142.871 17.0184L141.421 18.4632ZM146.194 21.0409C147.34 22.1308 147.939 23.4244 147.939 24.948H150.988C150.988 23.1862 150.291 21.6052 148.846 20.231L146.194 21.0409ZM147.939 24.948V30.492H150.988V24.948H147.939ZM147.939 30.492C147.939 32.0154 147.34 33.3215 146.188 34.435L148.851 35.2346C150.291 33.843 150.988 32.254 150.988 30.492H147.939ZM146.184 34.4389C145.067 35.5331 143.484 36.3879 141.404 37.0126L142.888 38.4474C145.458 37.6758 147.457 36.6004 148.856 35.2307L146.184 34.4389ZM141.411 37.0103C139.382 37.6115 136.994 37.9251 134.2 37.9251V39.5677C137.428 39.5677 140.337 39.2037 142.881 38.4497L141.411 37.0103ZM134.2 37.9251H128.141V39.5677H134.2V37.9251ZM134.2 35.8101C136.831 35.8101 139.044 35.2832 140.688 34.221L138.345 33.1693C137.321 33.8319 135.989 34.1675 134.2 34.1675V35.8101ZM140.674 34.2297C142.334 33.1864 143.099 31.8529 143.099 30.3072H140.05C140.05 31.554 139.443 32.4792 138.359 33.1607L140.674 34.2297ZM143.099 30.3072V25.1328H140.05V30.3072H143.099ZM143.099 25.1328C143.099 23.587 142.334 22.2536 140.674 21.2103L138.359 22.2793C139.443 22.9608 140.05 23.886 140.05 25.1328H143.099ZM140.688 21.2189C139.044 20.1567 136.831 19.6299 134.2 19.6299V21.2725C135.989 21.2725 137.321 21.608 138.345 22.2706L140.688 21.2189ZM134.2 19.6299H128.141V21.2725H134.2V19.6299ZM128.141 19.6299C125.51 19.6299 123.287 20.156 121.609 21.2103L123.924 22.2793C124.991 21.6089 126.35 21.2725 128.141 21.2725V19.6299ZM121.596 21.2189C119.982 22.2622 119.242 23.5926 119.242 25.1328H122.291C122.291 23.8805 122.884 22.9521 123.938 22.2706L121.596 21.2189ZM119.242 25.1328V30.3072H122.291V25.1328H119.242ZM119.242 30.3072C119.242 31.8474 119.982 33.1777 121.596 34.221L123.938 33.1693C122.884 32.4878 122.291 31.5595 122.291 30.3072H119.242ZM121.609 34.2297C123.287 35.2841 125.51 35.8101 128.141 35.8101V34.1675C126.35 34.1675 124.991 33.8311 123.924 33.1607L121.609 34.2297ZM128.141 35.8101H134.2V34.1675H128.141V35.8101ZM177.542 33.4796L178.97 33.1917L178.599 32.6583H177.542V33.4796ZM162.564 33.4796V32.6583H161.513L161.139 33.1876L162.564 33.4796ZM159.02 38.5V39.3213H160.071L160.445 38.792L159.02 38.5ZM150.788 38.5L149.369 38.2006L148.554 39.3213H150.788V38.5ZM166.452 16.94V16.1187H165.411L165.032 16.6406L166.452 16.94ZM175.027 18.788L173.603 19.082L173.604 19.0839L173.606 19.0858L175.027 18.788ZM189.261 38.5V39.3213H191.49L190.681 38.2023L189.261 38.5ZM181.029 38.5L179.601 38.7879L179.972 39.3213H181.029V38.5ZM164.68 29.9068L163.251 29.6197L162.484 30.7281H164.68V29.9068ZM175.427 29.9068V30.7281H177.614L176.857 29.6224L175.427 29.9068ZM170.11 22.1452L171.54 21.8608L171.173 21.3239H170.11V22.1452ZM170.053 22.1452V21.3239H168.994L168.625 21.8581L170.053 22.1452ZM177.542 32.6583H162.564V34.3009H177.542V32.6583ZM161.139 33.1876L157.595 38.208L160.445 38.792L163.989 33.7716L161.139 33.1876ZM159.02 37.6787H150.788V39.3213H159.02V37.6787ZM152.207 38.7994L167.871 17.2394L165.032 16.6406L149.369 38.2006L152.207 38.7994ZM166.452 17.7613H169.996V16.1187H166.452V17.7613ZM169.996 17.7613C170.996 17.7613 171.719 17.8844 172.253 18.0806C172.785 18.2763 173.253 18.5893 173.603 19.082L176.45 18.494C175.924 17.7546 175.114 17.1437 173.97 16.7234C172.828 16.3036 171.472 16.1187 169.996 16.1187V17.7613ZM173.606 19.0858L187.84 38.7977L190.681 38.2023L176.447 18.4902L173.606 19.0858ZM189.261 37.6787H181.029V39.3213H189.261V37.6787ZM182.457 38.2121L178.97 33.1917L176.114 33.7675L179.601 38.7879L182.457 38.2121ZM164.68 30.7281H175.427V29.0855H164.68V30.7281ZM176.857 29.6224L171.54 21.8608L168.68 22.4296L173.997 30.1912L176.857 29.6224ZM170.11 21.3239H170.053V22.9665H170.11V21.3239ZM168.625 21.8581L163.251 29.6197L166.108 30.1938L171.481 22.4322L168.625 21.8581ZM194.223 37.6992L193.166 38.2908L194.223 37.6992ZM192.68 16.94V16.1187H191.155V16.94H192.68ZM219.776 17.864L219.094 18.5986L219.099 18.5998L219.104 18.601L219.776 17.864ZM225.15 20.482L223.843 20.9046L223.848 20.9093L223.853 20.9138L225.15 20.482ZM223.263 36.4672L224.333 37.0524L224.337 37.0501L224.342 37.0479L223.263 36.4672ZM217.318 33.6028L218.456 34.1494L217.318 33.6028ZM217.089 21.7756L216.042 22.3723L216.05 22.3764L216.058 22.3803L217.089 21.7756ZM200.568 20.6976V19.8763H199.044V20.6976H200.568ZM200.568 34.7424H199.044V35.5637H200.568V34.7424ZM198.225 37.6787C196.918 37.6787 195.983 37.4723 195.281 37.1076L193.166 38.2908C194.521 38.9938 196.254 39.3213 198.225 39.3213V37.6787ZM195.281 37.1076C194.587 36.7479 194.204 36.2736 194.204 35.6048H191.155C191.155 36.6608 191.801 37.5828 193.166 38.2908L195.281 37.1076ZM194.204 35.6048V16.94H191.155V35.6048H194.204ZM192.68 17.7613H211.773V16.1187H192.68V17.7613ZM211.773 17.7613C214.631 17.7613 217.057 18.0496 219.094 18.5986L220.458 17.1294C217.923 16.4464 215.014 16.1187 211.773 16.1187V17.7613ZM219.104 18.601C221.182 19.1516 222.745 19.919 223.843 20.9046L226.457 20.0594C225.039 18.7863 223.021 17.8083 220.449 17.127L219.104 18.601ZM223.853 20.9138C224.984 21.899 225.569 23.0499 225.569 24.3936H228.618C228.618 22.7805 227.908 21.3236 226.447 20.0501L223.853 20.9138ZM225.569 24.3936V30.4304H228.618V24.3936H225.569ZM225.569 30.4304C225.569 32.942 224.362 34.7136 222.186 35.8865L224.342 37.0479C227.272 35.4693 228.618 33.2163 228.618 30.4304H225.569ZM222.194 35.882C220.02 37.0358 216.711 37.6787 212.002 37.6787V39.3213C217.201 39.3213 221.4 38.609 224.333 37.0524L222.194 35.882ZM212.002 37.6787H198.225V39.3213H212.002V37.6787ZM211.773 35.5637C214.512 35.5637 216.83 35.1315 218.456 34.1494L216.181 33.0562C215.291 33.5935 213.912 33.9211 211.773 33.9211V35.5637ZM218.456 34.1494C220.055 33.1835 220.729 31.8359 220.729 30.2456H217.68C217.68 31.6121 217.097 32.5026 216.181 33.0562L218.456 34.1494ZM220.729 30.2456V24.5784H217.68V30.2456H220.729ZM220.729 24.5784C220.729 23.2121 219.889 22.0462 218.121 21.1709L216.058 22.3803C217.11 22.9012 217.68 23.6037 217.68 24.5784H220.729ZM218.137 21.1789C216.394 20.2907 214.147 19.8763 211.544 19.8763V21.5189C213.515 21.5189 214.964 21.8232 216.042 22.3723L218.137 21.1789ZM211.544 19.8763H200.568V21.5189H211.544V19.8763ZM199.044 20.6976V34.7424H202.093V20.6976H199.044ZM200.568 35.5637H211.773V33.9211H200.568V35.5637Z" fill="#D01418"/>
</svg>
